Exact Audio Copy V0.99 prebeta 1 from 25. May 2007

EAC 抓取日志文件从10. 十月 2010, 17:12

李光x / 20世纪中华歌坛名人百集珍藏版

使用驱动器  ：PIONEER DVD-RW  DVR-115   Adapter: 0  ID: 0

读取模式     : 保护
使用精确流   : 是
废除音频缓冲 : 是
使用 C2 指针 : 否

读取偏移校正                   : 38
读取 Lead-In 和 Lead-Out       : 否
用静音填充抓取中丢失偏移的采样 : 是
去除首尾静音块                 : 否
已用接口                       : 已安装外部 ASPI 接口

所用输出格式 : 内部 WAV 函数
样本格式     : 44.100 Hz;16 Bit;立体声


被抓轨 CD 的 TOC

     音轨 |   开始   |   长度   | 起始扇区 | 结尾扇区 
    --------------------------------------------------
       1  |  0:00.00 |  2:48.67 |       0  |   12666  
       2  |  2:48.67 |  7:08.53 |   12667  |   44819  
       3  |  9:57.45 |  3:28.22 |   44820  |   60441  
       4  | 13:25.67 |  2:54.03 |   60442  |   73494  
       5  | 16:19.70 |  3:25.42 |   73495  |   88911  
       6  | 19:45.37 |  4:01.23 |   88912  |  107009  
       7  | 23:46.60 |  2:56.27 |  107010  |  120236  
       8  | 26:43.12 |  2:18.10 |  120237  |  130596  
       9  | 29:01.22 |  2:23.70 |  130597  |  141391  
      10  | 31:25.17 |  3:21.13 |  141392  |  156479  
      11  | 34:46.30 |  2:38.57 |  156480  |  168386  
      12  | 37:25.12 |  2:36.35 |  168387  |  180121  
      13  | 40:01.47 |  3:01.30 |  180122  |  193726  
      14  | 43:03.02 |  5:18.13 |  193727  |  217589  
      15  | 48:21.15 |  6:54.27 |  217590  |  248666  


范围状态及错误

已选择范围

     文件名 E:\文件夹\20世纪中华歌坛名人百集珍藏版-李光x[lwg188原创]\李光x - 20世纪中华歌坛名人百集珍藏版.wav

     峰值电平 100.0 %
     范围质量 100.0 %
     复制 CRC 6782D05C
     复制成功

没有错误发生

状态报告结尾
